<svg width="113" height="27" viewBox="0 0 113 27" fill="none" xmlns="http://www.w3.org/2000/svg">
<path d="M55.5359 11.8H52.1559V10.56H55.5359V4.62H57.0559V15.5H55.5359V11.8ZM50.2359 6.24H44.9159V5H50.2359V6.24ZM43.5759 15.46L42.5359 14.54C43.6559 13.78 44.5159 13.1333 45.1159 12.6C45.7159 12.0533 46.1493 11.52 46.4159 11C46.6959 10.4667 46.8426 9.86667 46.8559 9.2H43.0159V7.96H52.1359V9.2H48.2959C48.2959 10.16 48.0559 11.02 47.5759 11.78L47.6759 11.82L48.0159 11.58C48.1626 11.4733 48.3093 11.42 48.4559 11.42C48.5893 11.42 48.7426 11.4733 48.9159 11.58L52.5959 14.24L51.5559 15.18L47.8159 12.38C47.6959 12.3 47.5759 12.26 47.4559 12.26C47.3359 12.26 47.2359 12.3 47.1559 12.38C46.7959 12.8333 46.3293 13.3 45.7559 13.78C45.1959 14.26 44.4693 14.82 43.5759 15.46ZM57.0759 16.54V22.7H47.0759C46.7559 22.7 46.5093 22.6133 46.3359 22.44C46.1626 22.2667 46.0759 22.0133 46.0759 21.68V16.54H57.0759ZM55.5359 17.8H47.5959V21.44H55.5359V17.8ZM73.868 12.88H62.308V5.06H63.808V7.7H72.368V5.06H73.868V12.88ZM72.368 8.96H63.808V11.62H72.368V8.96ZM76.248 16.34H68.848V22.68H67.328V16.34H59.928V15.04H76.248V16.34ZM94.6 12.74H91.72V22.02H90.2V4.66H91.72V11.46H94.6V12.74ZM87.72 7.3H77.98V6.04H87.72V7.3ZM88.46 15.7L88.6 16.9C87.2533 17.1133 85.6067 17.2733 83.66 17.38C81.7267 17.4867 79.7133 17.54 77.62 17.54L77.48 16.28L80.12 16.26L79.52 8.96L81 8.82L81.5 16.24L84.06 16.12L84.7 8.8L86.18 8.94L85.46 16.02C86.66 15.94 87.66 15.8333 88.46 15.7ZM110.572 4.62V13.72H109.032V4.62H110.572ZM96.172 9.2C96.172 8.36 96.3654 7.62667 96.752 7C97.152 6.37333 97.6987 5.89333 98.392 5.56C99.0987 5.21333 99.892 5.04 100.772 5.04C101.652 5.04 102.439 5.21333 103.132 5.56C103.839 5.89333 104.385 6.37333 104.772 7C105.172 7.62667 105.372 8.36 105.372 9.2C105.372 10.04 105.172 10.7733 104.772 11.4C104.385 12.0267 103.839 12.5133 103.132 12.86C102.439 13.1933 101.652 13.36 100.772 13.36C99.892 13.36 99.0987 13.1933 98.392 12.86C97.6987 12.5133 97.152 12.0267 96.752 11.4C96.3654 10.7733 96.172 10.04 96.172 9.2ZM103.752 9.5V8.9C103.752 8.1 103.479 7.46667 102.932 7C102.385 6.52 101.665 6.28 100.772 6.28C99.8787 6.28 99.152 6.52 98.592 7C98.0454 7.48 97.772 8.11333 97.772 8.9V9.5C97.772 10.2867 98.052 10.92 98.612 11.4C99.172 11.88 99.892 12.12 100.772 12.12C101.652 12.12 102.365 11.88 102.912 11.4C103.472 10.92 103.752 10.2867 103.752 9.5ZM99.432 21.78V18.16H109.032V16.1H99.312V14.82H110.572V19.44H100.972V21.5H111.052V22.8H100.432C100.112 22.8 99.8654 22.7133 99.692 22.54C99.5187 22.3667 99.432 22.1133 99.432 21.78Z" fill="#2D3748"/>
<path fill-rule="evenodd" clip-rule="evenodd" d="M13.4846 7.68599C13.719 7.92031 13.719 8.3002 13.4846 8.53452L8.18134 13.8378C7.63461 14.3846 7.63461 15.271 8.18134 15.8177C8.72808 16.3645 9.61451 16.3645 10.1612 15.8177L15.111 10.868C15.3453 10.6337 15.7252 10.6337 15.9595 10.868C16.1938 11.1023 16.1938 11.4822 15.9595 11.7165L11.0098 16.6662C9.9944 17.6816 8.34818 17.6816 7.33281 16.6662C6.31745 15.6509 6.31745 14.0047 7.33281 12.9893L12.6361 7.68599C12.8704 7.45168 13.2503 7.45168 13.4846 7.68599Z" fill="#2D3748"/>
<path fill-rule="evenodd" clip-rule="evenodd" d="M12.9897 19.4947C12.7554 19.2604 12.7554 18.8805 12.9897 18.6461L20.0607 11.5751C21.3885 10.2473 21.3885 8.09454 20.0607 6.76676C18.733 5.43897 16.5802 5.43897 15.2524 6.76675L9.84211 12.1771C9.60779 12.4114 9.22789 12.4114 8.99358 12.1771C8.75926 11.9427 8.75926 11.5628 8.99358 11.3285L14.4039 5.91822C16.2003 4.12181 19.1129 4.12181 20.9093 5.91823C22.7057 7.71464 22.7057 10.6272 20.9093 12.4236L13.8382 19.4947C13.6039 19.729 13.224 19.729 12.9897 19.4947Z" fill="#2D3748"/>
<path fill-rule="evenodd" clip-rule="evenodd" d="M12.424 3.0898C12.6583 3.32411 12.6583 3.70401 12.424 3.93833L5.35291 11.0094C3.24408 13.1182 3.24408 16.5373 5.35291 18.6461C7.46174 20.755 10.8808 20.755 12.9897 18.6461L18.1627 13.4731C18.397 13.2388 18.7769 13.2388 19.0112 13.4731C19.2456 13.7074 19.2456 14.0873 19.0112 14.3216L13.8382 19.4947C11.2607 22.0721 7.08184 22.0721 4.50438 19.4947C1.92692 16.9172 1.92692 12.7383 4.50438 10.1609L11.5754 3.0898C11.8098 2.85548 12.1897 2.85548 12.424 3.0898Z" fill="#2D3748"/>
</svg>
