<svg width="111" height="54" viewBox="0 0 111 54" fill="none" xmlns="http://www.w3.org/2000/svg">
<g filter="url(#filter0_dd_229_8938)">
<g clip-path="url(#clip0_229_8938)">
<rect x="11" y="7" width="89" height="32" rx="16" fill="#E4ECF7"/>
<path d="M19.6522 18.228H24.3982C25.2102 18.228 25.8402 18.4567 26.2882 18.914C26.7456 19.3713 26.9742 19.978 26.9742 20.734C26.9742 21.1073 26.9229 21.4247 26.8202 21.686C26.7269 21.9473 26.5962 22.162 26.4282 22.33C26.2696 22.498 26.0782 22.624 25.8542 22.708C25.6396 22.7827 25.4062 22.8247 25.1542 22.834V22.918C25.3876 22.918 25.6302 22.96 25.8822 23.044C26.1436 23.128 26.3816 23.2633 26.5962 23.45C26.8109 23.6273 26.9882 23.8607 27.1282 24.15C27.2776 24.4393 27.3522 24.794 27.3522 25.214C27.3522 25.5967 27.2869 25.9607 27.1562 26.306C27.0349 26.642 26.8622 26.936 26.6382 27.188C26.4142 27.44 26.1482 27.6407 25.8402 27.79C25.5322 27.93 25.1962 28 24.8322 28H19.6522V18.228ZM21.7802 26.208H24.2302C24.5102 26.208 24.7296 26.1333 24.8882 25.984C25.0562 25.8253 25.1402 25.606 25.1402 25.326V24.85C25.1402 24.57 25.0562 24.3553 24.8882 24.206C24.7296 24.0473 24.5102 23.968 24.2302 23.968H21.7802V26.208ZM21.7802 22.232H23.8942C24.1742 22.232 24.3936 22.1527 24.5522 21.994C24.7109 21.8353 24.7902 21.616 24.7902 21.336V20.916C24.7902 20.636 24.7109 20.4167 24.5522 20.258C24.3936 20.0993 24.1742 20.02 23.8942 20.02H21.7802V22.232ZM34.805 28L34.105 25.676H30.843L30.143 28H27.987L31.207 18.228H33.839L37.017 28H34.805ZM32.495 20.16H32.425L31.347 23.87H33.587L32.495 20.16ZM41.8932 28.168C41.2305 28.168 40.6332 28.0653 40.1012 27.86C39.5692 27.6453 39.1165 27.3327 38.7432 26.922C38.3699 26.502 38.0805 25.984 37.8752 25.368C37.6699 24.7427 37.5672 24.0147 37.5672 23.184C37.5672 22.3627 37.6699 21.6347 37.8752 21C38.0805 20.356 38.3699 19.8193 38.7432 19.39C39.1165 18.9513 39.5692 18.62 40.1012 18.396C40.6332 18.172 41.2305 18.06 41.8932 18.06C42.7985 18.06 43.5452 18.2467 44.1332 18.62C44.7212 18.984 45.1925 19.5627 45.5472 20.356L43.7132 21.308C43.5825 20.8973 43.3772 20.5707 43.0972 20.328C42.8265 20.076 42.4252 19.95 41.8932 19.95C41.2679 19.95 40.7639 20.1553 40.3812 20.566C40.0079 20.9673 39.8212 21.5553 39.8212 22.33V23.898C39.8212 24.6727 40.0079 25.2653 40.3812 25.676C40.7639 26.0773 41.2679 26.278 41.8932 26.278C42.4159 26.278 42.8312 26.138 43.1392 25.858C43.4565 25.5687 43.6899 25.2233 43.8392 24.822L45.5752 25.83C45.2112 26.5767 44.7305 27.1553 44.1332 27.566C43.5452 27.9673 42.7985 28.168 41.8932 28.168ZM50.4663 23.744L49.1923 25.284V28H47.0643V18.228H49.1923V22.876H49.2763L50.6623 20.986L52.8603 18.228H55.2683L51.9783 22.246L55.5623 28H53.0563L50.4663 23.744Z" fill="#A0AEC0"/>
<path d="M66.4334 18.9614L66.4333 18.9619C66.3985 19.3266 66.1904 19.6733 66.0052 19.961C65.9403 20.062 65.8737 20.1619 65.8058 20.2637C65.6555 20.4892 65.4986 20.7246 65.3374 21.0045C64.888 21.7846 64.4623 22.8246 64.5027 24.3317C64.5431 25.8416 65.163 27.9425 66.8433 29.6801C68.5134 31.4071 71.2716 32.8169 75.6678 32.8869C80.0633 32.9558 83.0068 31.6133 84.8523 29.835C86.7069 28.048 87.4865 25.7898 87.4997 23.9718C87.5122 22.2595 87.1044 21.27 86.6928 20.6037C86.5234 20.3296 86.354 20.1097 86.1889 19.8955C86.1451 19.8385 86.1015 19.7819 86.0583 19.7248C85.8698 19.4757 85.6542 19.1757 85.5781 18.8214L85.5779 18.8207C85.5383 18.6346 85.5542 18.418 85.573 18.2418C85.5883 18.0988 85.6119 17.9334 85.6363 17.7633C85.6441 17.7085 85.652 17.6532 85.6598 17.598C85.7254 17.1287 85.7874 16.5997 85.7566 16.0657C85.726 15.5342 85.6044 15.0228 85.3216 14.5791C85.0429 14.1419 84.5842 13.7333 83.8131 13.44L83.813 13.44C82.8761 13.0836 82.1175 13.0521 81.5074 13.1801C80.8946 13.3088 80.3971 13.6059 79.9973 13.9584C79.5954 14.3127 79.2984 14.7177 79.0928 15.0466C78.9905 15.2101 78.9122 15.3527 78.8543 15.4604C78.8464 15.475 78.8385 15.4899 78.8307 15.5045C78.8115 15.5403 78.7931 15.5748 78.7785 15.601C78.7681 15.6197 78.7542 15.6441 78.7392 15.6675C78.7318 15.6791 78.7199 15.697 78.7046 15.7167C78.6942 15.73 78.6595 15.7745 78.6036 15.8164C78.5347 15.8681 78.4662 15.8935 78.4355 15.9042C78.3966 15.9177 78.3586 15.9274 78.3263 15.9347C78.2615 15.9492 78.1878 15.9607 78.1132 15.9703C77.9623 15.9895 77.7702 16.0053 77.5593 16.018C77.1354 16.0434 76.6063 16.0578 76.1144 16.0578H76.1077C75.6288 16.0578 75.1169 16.0578 74.7099 16.0433C74.5066 16.0361 74.3171 16.0249 74.1657 16.0063C74.0911 15.9972 74.0122 15.9847 73.9399 15.9658C73.9037 15.9564 73.859 15.9428 73.8127 15.9224C73.7717 15.9045 73.6976 15.8677 73.6281 15.7982C73.598 15.7681 73.5728 15.7346 73.5667 15.7265L73.5658 15.7253C73.5545 15.7105 73.5416 15.6929 73.5292 15.6758C73.5241 15.6688 73.5188 15.6616 73.5133 15.654C73.4902 15.6222 73.4629 15.5848 73.4299 15.5404C73.3488 15.4314 73.2356 15.2841 73.0925 15.1154C72.8049 14.7765 72.4015 14.3576 71.903 13.9935C70.9121 13.2698 69.5923 12.787 68.0211 13.5096L66.4334 18.9614ZM66.4334 18.9614C66.4483 18.8032 66.4129 18.6062 66.3861 18.4628M66.4334 18.9614L66.3861 18.4628M66.3861 18.4628C66.3724 18.3892 66.3563 18.3081 66.3396 18.2243M66.3861 18.4628L66.3396 18.2243M66.3396 18.2243C66.3371 18.2119 66.3347 18.1995 66.3322 18.187M66.3396 18.2243L66.3322 18.187M66.3322 18.187C66.3126 18.0886 66.2921 17.9844 66.2718 17.874M66.3322 18.187L66.2718 17.874M66.2718 17.874C66.1902 17.4309 66.1153 16.9038 66.1344 16.3591M66.2718 17.874L66.1344 16.3591M66.1344 16.3591C66.1534 15.8157 66.2655 15.2736 66.5429 14.7886M66.1344 16.3591L66.5429 14.7886M66.5429 14.7886C66.8167 14.3099 67.2689 13.8563 68.021 13.5096L66.5429 14.7886ZM86.5784 19.5816C86.3277 19.2564 86.127 18.9961 86.067 18.7164L75.66 33.3868C84.6734 33.5282 87.9714 27.8713 87.9997 23.9755C88.0181 21.449 87.1625 20.3392 86.5784 19.5816Z" stroke="#B7D019"/>
</g>
</g>
<defs>
<filter id="filter0_dd_229_8938" x="0" y="0" width="111" height="54" filterUnits="userSpaceOnUse" color-interpolation-filters="sRGB">
<feFlood flood-opacity="0" result="BackgroundImageFix"/>
<feColorMatrix in="SourceAlpha" type="matrix" values="0 0 0 0 0 0 0 0 0 0 0 0 0 0 0 0 0 0 127 0" result="hardAlpha"/>
<feOffset dy="1"/>
<feGaussianBlur stdDeviation="1.5"/>
<feColorMatrix type="matrix" values="0 0 0 0 0 0 0 0 0 0 0 0 0 0 0 0 0 0 0.3 0"/>
<feBlend mode="normal" in2="BackgroundImageFix" result="effect1_dropShadow_229_8938"/>
<feColorMatrix in="SourceAlpha" type="matrix" values="0 0 0 0 0 0 0 0 0 0 0 0 0 0 0 0 0 0 127 0" result="hardAlpha"/>
<feMorphology radius="3" operator="dilate" in="SourceAlpha" result="effect2_dropShadow_229_8938"/>
<feOffset dy="4"/>
<feGaussianBlur stdDeviation="4"/>
<feColorMatrix type="matrix" values="0 0 0 0 0 0 0 0 0 0 0 0 0 0 0 0 0 0 0.15 0"/>
<feBlend mode="normal" in2="effect1_dropShadow_229_8938" result="effect2_dropShadow_229_8938"/>
<feBlend mode="normal" in="SourceGraphic" in2="effect2_dropShadow_229_8938" result="shape"/>
</filter>
<clipPath id="clip0_229_8938">
<rect x="11" y="7" width="89" height="32" rx="16" fill="white"/>
</clipPath>
</defs>
</svg>
