<svg width="124" height="68" viewBox="0 0 124 68" fill="none" xmlns="http://www.w3.org/2000/svg">
<g filter="url(#filter0_dd_104_1587)">
<g clip-path="url(#clip0_104_1587)">
<rect x="14" y="14" width="96" height="32" rx="8" fill="#E4ECF7"/>
<g filter="url(#filter1_dd_104_1587)">
<path d="M40.3256 24.094V36.526H38.4356V24.094H40.3256ZM34.8516 29.568C35.0383 29.568 35.211 29.6473 35.3696 29.806L37.5676 32.34L36.1396 33.544L33.8436 30.772C33.7783 30.7067 33.7176 30.674 33.6616 30.674C33.6056 30.674 33.5543 30.702 33.5076 30.758C33.0036 31.598 32.1916 32.6013 31.0716 33.768L29.6436 32.592C30.689 31.6027 31.445 30.674 31.9116 29.806C32.3876 28.9287 32.6256 27.9953 32.6256 27.006V26.74H30.1756V25.172H36.9376V26.74H34.5156V27.076C34.5156 28.1307 34.315 29.1013 33.9136 29.988L33.9836 30.03L34.3616 29.75C34.5296 29.6287 34.693 29.568 34.8516 29.568ZM51.1141 31.458V24.094H52.9761V34.132H51.1141V32.83H48.5101V31.458H51.1141ZM42.8961 26.698C42.8961 26.222 43.0314 25.8067 43.3021 25.452C43.5821 25.088 43.9647 24.808 44.4501 24.612C44.9447 24.416 45.5141 24.318 46.1581 24.318C46.8021 24.318 47.3667 24.416 47.8521 24.612C48.3467 24.808 48.7294 25.088 49.0001 25.452C49.2801 25.8067 49.4201 26.222 49.4201 26.698C49.4201 27.1833 49.2801 27.608 49.0001 27.972C48.7294 28.336 48.3467 28.616 47.8521 28.812C47.3667 29.008 46.8021 29.106 46.1581 29.106C45.5141 29.106 44.9447 29.008 44.4501 28.812C43.9647 28.616 43.5821 28.336 43.3021 27.972C43.0314 27.608 42.8961 27.1833 42.8961 26.698ZM44.7721 26.782C44.7721 27.0713 44.8934 27.3 45.1361 27.468C45.3881 27.636 45.7287 27.72 46.1581 27.72C46.5874 27.72 46.9234 27.636 47.1661 27.468C47.4181 27.3 47.5441 27.0713 47.5441 26.782V26.642C47.5441 26.3433 47.4181 26.11 47.1661 25.942C46.9234 25.774 46.5874 25.69 46.1581 25.69C45.7287 25.69 45.3881 25.774 45.1361 25.942C44.8934 26.11 44.7721 26.3433 44.7721 26.642V26.782ZM45.1921 31.15C44.3241 31.1873 43.3301 31.206 42.2101 31.206L42.0701 29.708C43.6661 29.708 45.1967 29.6753 46.6621 29.61C48.1367 29.5447 49.3407 29.4467 50.2741 29.316L50.4421 30.716C49.5274 30.8467 48.3794 30.9587 46.9981 31.052V33.082H45.1921V31.15ZM53.2281 35.266V36.778H45.8361C45.0427 36.778 44.6461 36.3813 44.6461 35.588V33.432H46.5081V35.266H53.2281ZM66.4665 30.17H64.6045V36.526H62.7285V24.094H64.6045V28.602H66.4665V30.17ZM59.4105 29.582C59.5972 29.582 59.7698 29.6613 59.9285 29.82L62.1265 32.368L60.7265 33.558L58.4445 30.758C58.3885 30.702 58.3232 30.674 58.2485 30.674C58.1925 30.674 58.1412 30.702 58.0945 30.758C57.8145 31.2247 57.4785 31.7007 57.0865 32.186C56.6945 32.662 56.2232 33.1893 55.6725 33.768L54.2725 32.62C55.3178 31.612 56.0738 30.674 56.5405 29.806C57.0072 28.9287 57.2405 27.9953 57.2405 27.006V26.74H54.7905V25.172H61.5245V26.74H59.0885V27.062C59.0885 28.1073 58.8878 29.0873 58.4865 30.002L58.5565 30.044L58.9345 29.764C59.1025 29.6427 59.2612 29.582 59.4105 29.582ZM81.9215 33.614V35.196H70.3575V33.614H75.2015V31.36H71.8555V24.738H73.7175V26.6H78.5615V24.738H80.4235V31.36H77.0775V33.614H81.9215ZM73.7175 29.82H78.5615V28.14H73.7175V29.82ZM91.6739 24.094H93.5639V36.526H91.6739V24.094ZM83.1619 32.592C84.3566 31.9947 85.2666 31.444 85.8919 30.94C86.5173 30.436 86.9559 29.8993 87.2079 29.33C87.4693 28.7513 87.5999 28.0373 87.5999 27.188V26.656H83.5959V25.074H89.5039V27.188C89.5039 28.2613 89.3359 29.176 88.9999 29.932C88.6733 30.688 88.1366 31.3833 87.3899 32.018C86.6433 32.6433 85.5979 33.3153 84.2539 34.034L83.1619 32.592Z" fill="#425466"/>
</g>
</g>
</g>
<defs>
<filter id="filter0_dd_104_1587" x="-4" y="0" width="132" height="68" filterUnits="userSpaceOnUse" color-interpolation-filters="sRGB">
<feFlood flood-opacity="0" result="BackgroundImageFix"/>
<feColorMatrix in="SourceAlpha" type="matrix" values="0 0 0 0 0 0 0 0 0 0 0 0 0 0 0 0 0 0 127 0" result="hardAlpha"/>
<feMorphology radius="2" operator="erode" in="SourceAlpha" result="effect1_dropShadow_104_1587"/>
<feOffset dy="4"/>
<feGaussianBlur stdDeviation="10"/>
<feColorMatrix type="matrix" values="0 0 0 0 0.196078 0 0 0 0 0.196078 0 0 0 0 0.278431 0 0 0 0.08 0"/>
<feBlend mode="normal" in2="BackgroundImageFix" result="effect1_dropShadow_104_1587"/>
<feColorMatrix in="SourceAlpha" type="matrix" values="0 0 0 0 0 0 0 0 0 0 0 0 0 0 0 0 0 0 127 0" result="hardAlpha"/>
<feOffset dy="8"/>
<feGaussianBlur stdDeviation="5"/>
<feColorMatrix type="matrix" values="0 0 0 0 0.0470588 0 0 0 0 0.101961 0 0 0 0 0.294118 0 0 0 0.1 0"/>
<feBlend mode="normal" in2="effect1_dropShadow_104_1587" result="effect2_dropShadow_104_1587"/>
<feBlend mode="normal" in="SourceGraphic" in2="effect2_dropShadow_104_1587" result="shape"/>
</filter>
<filter id="filter1_dd_104_1587" x="18.5" y="7" width="87" height="54" filterUnits="userSpaceOnUse" color-interpolation-filters="sRGB">
<feFlood flood-opacity="0" result="BackgroundImageFix"/>
<feColorMatrix in="SourceAlpha" type="matrix" values="0 0 0 0 0 0 0 0 0 0 0 0 0 0 0 0 0 0 127 0" result="hardAlpha"/>
<feOffset dy="1"/>
<feGaussianBlur stdDeviation="1.5"/>
<feColorMatrix type="matrix" values="0 0 0 0 0 0 0 0 0 0 0 0 0 0 0 0 0 0 0.3 0"/>
<feBlend mode="normal" in2="BackgroundImageFix" result="effect1_dropShadow_104_1587"/>
<feColorMatrix in="SourceAlpha" type="matrix" values="0 0 0 0 0 0 0 0 0 0 0 0 0 0 0 0 0 0 127 0" result="hardAlpha"/>
<feMorphology radius="3" operator="dilate" in="SourceAlpha" result="effect2_dropShadow_104_1587"/>
<feOffset dy="4"/>
<feGaussianBlur stdDeviation="4"/>
<feColorMatrix type="matrix" values="0 0 0 0 0 0 0 0 0 0 0 0 0 0 0 0 0 0 0.15 0"/>
<feBlend mode="normal" in2="effect1_dropShadow_104_1587" result="effect2_dropShadow_104_1587"/>
<feBlend mode="normal" in="SourceGraphic" in2="effect2_dropShadow_104_1587" result="shape"/>
</filter>
<clipPath id="clip0_104_1587">
<rect x="14" y="14" width="96" height="32" rx="8" fill="white"/>
</clipPath>
</defs>
</svg>
