<svg width="47" height="42" viewBox="0 0 47 42" fill="none" xmlns="http://www.w3.org/2000/svg">
<path d="M4.03517 12.9979L4.0352 12.9977C4.05297 12.8098 4.00919 12.5316 3.9519 12.2244C3.9259 12.085 3.89532 11.9313 3.8626 11.7669C3.85776 11.7425 3.85288 11.718 3.84795 11.6932C3.80959 11.5002 3.76859 11.2922 3.72785 11.0709C3.56474 10.185 3.40746 9.09368 3.44751 7.95031C3.48754 6.80757 3.72443 5.62217 4.3422 4.54216C4.95819 3.46528 5.96152 2.47778 7.56091 1.74052C10.9551 0.179257 13.82 1.24921 15.8888 2.76022C16.9247 3.51685 17.7552 4.38099 18.3414 5.07182C18.6342 5.41683 18.8654 5.71781 19.0304 5.93963C19.0974 6.02977 19.1533 6.10653 19.1986 6.16877C19.2092 6.1833 19.2192 6.19704 19.2286 6.20997C19.2532 6.24365 19.2748 6.27303 19.2922 6.29602C19.306 6.31416 19.3277 6.3426 19.3488 6.36376C19.3938 6.40878 19.4466 6.43681 19.4877 6.45485C19.5314 6.47406 19.5793 6.48931 19.6277 6.50191C19.7242 6.5271 19.8425 6.54687 19.9742 6.56303C20.2388 6.59547 20.5845 6.61651 20.976 6.63041C21.7592 6.65822 22.7503 6.65822 23.694 6.65822H23.6975C24.6477 6.65822 25.6681 6.63047 26.4804 6.58172C26.886 6.55738 27.2433 6.5276 27.5153 6.49287C27.6508 6.47557 27.7697 6.45648 27.8648 6.43512C27.9123 6.42447 27.9578 6.41237 27.9984 6.39822C28.035 6.38548 28.0852 6.36522 28.13 6.33168C28.1605 6.30879 28.1809 6.28326 28.1896 6.27203C28.2009 6.25759 28.2109 6.24273 28.2192 6.22976C28.2359 6.20374 28.254 6.17223 28.2726 6.13896C28.2981 6.09305 28.3294 6.03443 28.3653 5.96738C28.3813 5.93748 28.3982 5.90591 28.4158 5.87304C28.5323 5.65632 28.6942 5.36163 28.9063 5.02229C29.3312 4.34269 29.9553 3.48833 30.8115 2.73352C31.6667 1.97955 32.7503 1.32749 34.0974 1.04466C35.4432 0.762129 37.069 0.844434 39.016 1.58508L39.1049 1.35142L39.0161 1.58509C40.6544 2.20813 41.6837 3.10095 42.322 4.10247C42.9624 5.10723 43.2214 6.24022 43.286 7.3599C43.3506 8.48084 43.22 9.57593 43.0907 10.5001C43.0746 10.6147 43.0586 10.7271 43.0429 10.8368C42.9958 11.1656 42.9522 11.4703 42.9239 11.7358C42.8868 12.0834 42.8709 12.4012 42.9217 12.6391L42.9217 12.6395C43.0326 13.1556 43.355 13.625 43.7298 14.1203C43.8078 14.2234 43.8887 14.3283 43.9719 14.4362C44.2972 14.8583 44.6568 15.3248 45.0098 15.8962C45.8876 17.3171 46.7223 19.3874 46.6969 22.8726C46.6697 26.618 45.069 31.2247 41.2954 34.8609C37.5263 38.4927 31.5727 41.1718 22.8126 41.0344C14.0519 40.895 8.46082 38.0786 5.03862 34.5397C1.61125 30.9955 0.338921 26.7057 0.255466 23.5907C0.172051 20.4772 1.0569 18.311 1.98516 16.6994C2.31261 16.1309 2.64172 15.6371 2.94128 15.1875C3.07062 14.9935 3.19444 14.8076 3.31025 14.6277C3.68247 14.0491 3.98614 13.5111 4.03517 12.9979Z" fill="#B7D019" stroke="black" stroke-width="0.5"/>
<path d="M38.9998 10.5841C38.9998 12.6659 37.8113 14.4249 35.8226 14.3502C34.1073 14.2872 32.7168 12.6619 32.7168 10.5841C32.7168 8.50628 34.1073 6.84953 35.8226 6.81804C37.847 6.77869 38.9998 8.50234 38.9998 10.5841Z" fill="#2F2F2F"/>
<path d="M14.7594 10.2889C14.8703 12.9492 13.5709 14.2793 11.5822 14.2399C9.91048 14.2085 8.58732 12.9846 8.55167 10.4345C8.51998 8.33309 9.33209 6.70388 11.5822 6.62911C13.254 6.57795 14.6722 8.19142 14.7594 10.2889Z" fill="#2F2F2F"/>
<path d="M19.2759 18.9032C18.955 19.6076 18.0637 19.828 17.4655 19.4856C16.8712 19.1432 16.7088 18.2145 17.097 17.5455C17.4853 16.8765 18.1469 16.7742 18.6302 16.9631C19.2759 17.2149 19.7513 17.8603 19.2759 18.9032Z" fill="#2F2F2F"/>
<path d="M29.9873 17.7421C30.2924 18.474 29.9239 19.3319 29.2188 19.5405C28.5136 19.749 27.757 19.3004 27.5312 18.5409C27.3054 17.7814 27.5866 17.1203 28.272 16.8487C28.7196 16.6756 29.5357 16.6599 29.9873 17.7421Z" fill="#2F2F2F"/>
<path d="M9.30531 24.9501L12.2813 23.5513C12.3222 23.5629 12.3765 23.5781 12.4434 23.5965C12.6079 23.6418 12.8487 23.7064 13.155 23.7841C13.7675 23.9397 14.6426 24.1481 15.6945 24.3599C17.7968 24.7832 20.6118 25.2216 23.4511 25.2773C26.2976 25.3332 28.823 24.8935 30.6361 24.4403C31.5431 24.2136 32.273 23.9833 32.777 23.8092C33.0291 23.7222 33.2248 23.6492 33.358 23.5978C33.3967 23.5828 33.43 23.5697 33.458 23.5586L37.6413 25.582C37.5051 25.7114 37.3096 25.8874 37.0526 26.0953C36.487 26.5529 35.6242 27.1645 34.4428 27.7725C32.0814 28.9878 28.4418 30.1911 23.3491 30.1147C18.3805 30.0402 14.8755 28.9269 12.6183 27.8392C11.4892 27.2951 10.6711 26.7569 10.1375 26.3568C9.87063 26.1568 9.67487 25.9914 9.54688 25.877C9.49131 25.8274 9.44852 25.7874 9.41823 25.7583L9.30531 24.9501Z" fill="#FF6011" stroke="black" stroke-width="0.5"/>
<path d="M37.6343 25.6445C37.4937 25.7624 37.3737 25.8569 37.2882 25.9224C37.2561 25.9008 37.2193 25.8761 37.1785 25.8488C37.0187 25.7419 36.7964 25.5944 36.5461 25.4317C36.0477 25.1076 35.431 24.7185 34.9769 24.4723C34.5023 24.215 33.7496 23.9905 33.1369 23.8327C33.0486 23.81 32.9626 23.7885 32.8801 23.7684C33.2537 23.6374 33.7364 23.4645 34.2973 23.2552L34.2099 23.021L34.2973 23.2552C34.9234 23.0216 35.4908 22.7368 36.0013 22.4766C36.0324 22.4607 36.0633 22.4449 36.094 22.4293C36.5717 22.1855 36.9907 21.9716 37.3764 21.8331C37.7853 21.6862 38.1231 21.6371 38.4206 21.7104C38.7112 21.782 39.0051 21.9811 39.3052 22.4194C39.5198 22.7335 39.5285 23.0909 39.3895 23.4859C39.2481 23.8876 38.9606 24.3035 38.6243 24.6874C38.2904 25.0686 37.9215 25.4037 37.6343 25.6445Z" fill="black" stroke="black" stroke-width="0.5"/>
<path d="M10.6182 22.7552C11.2898 23.1432 12.191 23.4617 12.912 23.6816C13.0018 23.7089 13.089 23.7348 13.173 23.7592C13.1474 23.7652 13.1216 23.7712 13.0955 23.7774C12.4683 23.9251 11.6832 24.1363 11.0883 24.3857C10.4906 24.6363 9.97414 24.9633 9.60844 25.2261C9.44133 25.3461 9.3047 25.4535 9.20508 25.5351C9.14099 25.4645 9.06107 25.374 8.97186 25.268C8.7432 24.9964 8.45734 24.6272 8.22036 24.2299C7.98055 23.8279 7.80507 23.4205 7.77144 23.0684C7.73955 22.7344 7.83319 22.4634 8.1315 22.2643L7.99282 22.0563L8.13162 22.2642C8.48693 22.0274 8.91877 22.0349 9.37907 22.1723C9.82899 22.3067 10.2594 22.5513 10.5948 22.7418C10.6026 22.7463 10.6104 22.7507 10.6182 22.7552ZM10.6182 22.7552C10.6179 22.755 10.6176 22.7548 10.6174 22.7547L10.7425 22.5382L10.619 22.7556C10.6187 22.7555 10.6184 22.7553 10.6182 22.7552Z" fill="black" stroke="black" stroke-width="0.5"/>
</svg>
