<svg width="47" height="41" viewBox="0 0 47 41" fill="none" xmlns="http://www.w3.org/2000/svg">
<path d="M4.03517 12.3534L4.0352 12.3532C4.05297 12.1653 4.00919 11.8871 3.9519 11.5799C3.9259 11.4405 3.89532 11.2868 3.8626 11.1223C3.85776 11.098 3.85288 11.0734 3.84795 11.0487C3.80959 10.8557 3.76859 10.6477 3.72785 10.4264C3.56474 9.54043 3.40746 8.44915 3.44751 7.30578C3.48754 6.16304 3.72443 4.97764 4.3422 3.89763C4.95819 2.82074 5.96152 1.83325 7.56091 1.09599C10.9551 -0.465274 13.82 0.604683 15.8888 2.11569C16.9247 2.87232 17.7552 3.73646 18.3414 4.42729C18.6342 4.7723 18.8654 5.07328 19.0304 5.2951C19.0974 5.38524 19.1533 5.462 19.1986 5.52424C19.2092 5.53877 19.2192 5.55251 19.2286 5.56544C19.2532 5.59912 19.2748 5.6285 19.2922 5.65149C19.306 5.66963 19.3277 5.69807 19.3488 5.71923C19.3938 5.76425 19.4466 5.79228 19.4877 5.81032C19.5314 5.82953 19.5793 5.84478 19.6277 5.85738C19.7242 5.88257 19.8425 5.90234 19.9742 5.9185C20.2388 5.95094 20.5845 5.97198 20.976 5.98588C21.7592 6.01369 22.7503 6.01369 23.694 6.01369H23.6975C24.6477 6.01369 25.6681 5.98593 26.4804 5.93719C26.886 5.91285 27.2433 5.88307 27.5153 5.84834C27.6508 5.83104 27.7697 5.81194 27.8648 5.79059C27.9123 5.77994 27.9578 5.76784 27.9984 5.75369C28.035 5.74095 28.0852 5.72069 28.13 5.68715C28.1605 5.66426 28.1809 5.63873 28.1896 5.6275C28.2009 5.61305 28.2109 5.5982 28.2192 5.58523C28.2359 5.55921 28.254 5.5277 28.2726 5.49442C28.2981 5.44852 28.3294 5.3899 28.3653 5.32285C28.3813 5.29295 28.3982 5.26137 28.4158 5.22851C28.5323 5.01179 28.6942 4.7171 28.9063 4.37776C29.3312 3.69816 29.9553 2.8438 30.8115 2.08898C31.6667 1.33502 32.7503 0.682954 34.0974 0.400132C35.4432 0.117598 37.069 0.199903 39.016 0.940551L39.1049 0.706887L39.0161 0.940561C40.6544 1.5636 41.6837 2.45642 42.322 3.45793C42.9624 4.46269 43.2214 5.59569 43.286 6.71537C43.3506 7.83631 43.22 8.9314 43.0907 9.8556C43.0746 9.97013 43.0586 10.0825 43.0429 10.1922C42.9958 10.5211 42.9522 10.8258 42.9239 11.0913C42.8868 11.4389 42.8709 11.7567 42.9217 11.9946L42.9217 11.995C43.0326 12.5111 43.355 12.9805 43.7298 13.4757C43.8078 13.5788 43.8887 13.6838 43.9719 13.7917C44.2972 14.2138 44.6568 14.6803 45.0098 15.2517C45.8876 16.6725 46.7223 18.7428 46.6969 22.2281C46.6697 25.9735 45.069 30.5801 41.2954 34.2163C37.5263 37.8482 31.5727 40.5273 22.8126 40.3899C14.0519 40.2505 8.46082 37.4341 5.03862 33.8952C1.61125 30.3509 0.338921 26.0612 0.255466 22.9462C0.172051 19.8326 1.0569 17.6665 1.98516 16.0549C2.31261 15.4864 2.64172 14.9925 2.94128 14.543C3.07062 14.3489 3.19444 14.1631 3.31025 13.9831C3.68247 13.4046 3.98614 12.8666 4.03517 12.3534Z" stroke="black" stroke-width="0.5"/>
<path d="M38.9998 9.93957C38.9998 12.0213 37.8113 13.7804 35.8226 13.7056C34.1073 13.6427 32.7168 12.0174 32.7168 9.93957C32.7168 7.86175 34.1073 6.20499 35.8226 6.17351C37.847 6.13416 38.9998 7.85781 38.9998 9.93957Z" fill="#2F2F2F"/>
<path d="M14.7594 9.64439C14.8703 12.3046 13.5709 13.6348 11.5822 13.5954C9.91048 13.5639 8.58732 12.34 8.55167 9.78999C8.51998 7.68856 9.33209 6.05935 11.5822 5.98458C13.254 5.93342 14.6722 7.54689 14.7594 9.64439Z" fill="#2F2F2F"/>
<path d="M19.2759 18.2586C18.955 18.963 18.0637 19.1834 17.4655 18.8411C16.8712 18.4987 16.7088 17.57 17.097 16.901C17.4853 16.232 18.1469 16.1296 18.6302 16.3185C19.2759 16.5704 19.7513 17.2158 19.2759 18.2586Z" fill="#2F2F2F"/>
<path d="M29.9873 17.0975C30.2924 17.8295 29.9239 18.6874 29.2188 18.8959C28.5136 19.1045 27.757 18.6559 27.5312 17.8964C27.3054 17.1369 27.5866 16.4757 28.272 16.2042C28.7196 16.0311 29.5357 16.0153 29.9873 17.0975Z" fill="#2F2F2F"/>
<path d="M9.30531 24.3055L12.2813 22.9068C12.3222 22.9184 12.3765 22.9336 12.4434 22.952C12.6079 22.9972 12.8487 23.0618 13.155 23.1396C13.7675 23.2951 14.6426 23.5035 15.6945 23.7153C17.7968 24.1387 20.6118 24.5771 23.4511 24.6328C26.2976 24.6887 28.823 24.2489 30.6361 23.7958C31.5431 23.5691 32.273 23.3388 32.777 23.1647C33.0291 23.0777 33.2248 23.0047 33.358 22.9532C33.3967 22.9383 33.43 22.9252 33.458 22.9141L37.6413 24.9374C37.5051 25.0668 37.3096 25.2429 37.0526 25.4508C36.487 25.9083 35.6242 26.52 34.4428 27.128C32.0814 28.3432 28.4418 29.5466 23.3491 29.4702C18.3805 29.3957 14.8755 28.2824 12.6183 27.1947C11.4892 26.6506 10.6711 26.1123 10.1375 25.7123C9.87063 25.5123 9.67487 25.3468 9.54688 25.2325C9.49131 25.1828 9.44852 25.1428 9.41823 25.1138L9.30531 24.3055Z" stroke="black" stroke-width="0.5"/>
<path d="M37.6343 25C37.4937 25.1178 37.3737 25.2124 37.2882 25.2778C37.2561 25.2562 37.2193 25.2316 37.1785 25.2042C37.0187 25.0974 36.7964 24.9498 36.5461 24.7871C36.0477 24.4631 35.431 24.074 34.9769 23.8278C34.5023 23.5704 33.7496 23.3459 33.1369 23.1882C33.0486 23.1655 32.9626 23.144 32.8801 23.1238C33.2537 22.9929 33.7364 22.82 34.2973 22.6107L34.2099 22.3765L34.2973 22.6107C34.9234 22.377 35.4908 22.0923 36.0013 21.832C36.0324 21.8161 36.0633 21.8004 36.094 21.7847C36.5717 21.5409 36.9907 21.3271 37.3764 21.1885C37.7853 21.0416 38.1231 20.9926 38.4206 21.0659C38.7112 21.1375 39.0051 21.3366 39.3053 21.7749C39.5198 22.089 39.5285 22.4464 39.3895 22.8414C39.2481 23.2431 38.9606 23.6589 38.6243 24.0429C38.2904 24.424 37.9215 24.7591 37.6343 25Z" fill="black" stroke="black" stroke-width="0.5"/>
<path d="M10.6182 22.1106C11.2898 22.4986 12.191 22.8172 12.912 23.037C13.0018 23.0644 13.089 23.0903 13.173 23.1147C13.1474 23.1206 13.1216 23.1267 13.0955 23.1328C12.4683 23.2806 11.6831 23.4918 11.0883 23.7412C10.4906 23.9917 9.97414 24.3188 9.60844 24.5815C9.44133 24.7016 9.3047 24.809 9.20508 24.8906C9.14099 24.8199 9.06107 24.7295 8.97186 24.6235C8.7432 24.3519 8.45734 23.9826 8.22036 23.5854C7.98055 23.1834 7.80507 22.776 7.77144 22.4238C7.73955 22.0899 7.83319 21.8189 8.1315 21.6197L7.99282 21.4117L8.13162 21.6197C8.48693 21.3828 8.91877 21.3904 9.37907 21.5278C9.82899 21.6622 10.2594 21.9067 10.5948 22.0973C10.6026 22.1018 10.6104 22.1062 10.6182 22.1106ZM10.6182 22.1106C10.6179 22.1105 10.6176 22.1103 10.6174 22.1101L10.7425 21.8937L10.619 22.1111C10.6187 22.1109 10.6184 22.1108 10.6182 22.1106Z" fill="black" stroke="black" stroke-width="0.5"/>
</svg>
