<svg width="120" height="54" viewBox="0 0 120 54" fill="none" xmlns="http://www.w3.org/2000/svg">
<g filter="url(#filter0_dd_229_8941)">
<g clip-path="url(#clip0_229_8941)">
<rect x="11" y="7" width="98" height="32" rx="16" fill="#E4ECF7"/>
<path d="M19.8387 28V18.228H26.3207V20.118H21.9667V22.12H25.6767V23.996H21.9667V28H19.8387ZM30.1562 28H28.0282V18.228H32.6622C33.1102 18.228 33.5162 18.3027 33.8802 18.452C34.2442 18.6013 34.5522 18.816 34.8042 19.096C35.0655 19.3667 35.2662 19.6933 35.4062 20.076C35.5462 20.4587 35.6162 20.8833 35.6162 21.35C35.6162 22.0127 35.4669 22.5913 35.1682 23.086C34.8789 23.5807 34.4355 23.94 33.8382 24.164L35.7562 28H33.3902L31.6822 24.416H30.1562V28ZM32.3962 22.624C32.7135 22.624 32.9609 22.5447 33.1382 22.386C33.3249 22.218 33.4182 21.9753 33.4182 21.658V21.042C33.4182 20.7247 33.3249 20.4867 33.1382 20.328C32.9609 20.16 32.7135 20.076 32.3962 20.076H30.1562V22.624H32.3962ZM41.2451 28.168C40.6011 28.168 40.0131 28.0607 39.4811 27.846C38.9491 27.6313 38.4964 27.314 38.1231 26.894C37.7497 26.4647 37.4604 25.9373 37.2551 25.312C37.0497 24.6773 36.9471 23.9447 36.9471 23.114C36.9471 22.2833 37.0497 21.5553 37.2551 20.93C37.4604 20.2953 37.7497 19.768 38.1231 19.348C38.4964 18.9187 38.9491 18.5967 39.4811 18.382C40.0131 18.1673 40.6011 18.06 41.2451 18.06C41.8891 18.06 42.4771 18.1673 43.0091 18.382C43.5411 18.5967 43.9937 18.9187 44.3671 19.348C44.7404 19.768 45.0297 20.2953 45.2351 20.93C45.4404 21.5553 45.5431 22.2833 45.5431 23.114C45.5431 23.9447 45.4404 24.6773 45.2351 25.312C45.0297 25.9373 44.7404 26.4647 44.3671 26.894C43.9937 27.314 43.5411 27.6313 43.0091 27.846C42.4771 28.0607 41.8891 28.168 41.2451 28.168ZM41.2451 26.278C41.8891 26.278 42.3884 26.068 42.7431 25.648C43.1071 25.228 43.2891 24.626 43.2891 23.842V22.386C43.2891 21.602 43.1071 21 42.7431 20.58C42.3884 20.16 41.8891 19.95 41.2451 19.95C40.6011 19.95 40.0971 20.16 39.7331 20.58C39.3784 21 39.2011 21.602 39.2011 22.386V23.842C39.2011 24.626 39.3784 25.228 39.7331 25.648C40.0971 26.068 40.6011 26.278 41.2451 26.278ZM50.3012 23.38L49.3632 21.42H49.3212V28H47.3192V18.228H49.6432L52.3172 22.848L53.2552 24.808H53.2972V18.228H55.2992V28H52.9752L50.3012 23.38ZM61.5241 20.118V28H59.3961V20.118H56.7501V18.228H64.1701V20.118H61.5241Z" fill="#A0AEC0"/>
<path d="M75.4334 18.9614L75.4333 18.9619C75.3985 19.3266 75.1904 19.6733 75.0052 19.961C74.9403 20.062 74.8737 20.1619 74.8058 20.2637C74.6555 20.4892 74.4986 20.7246 74.3374 21.0045C73.888 21.7846 73.4623 22.8246 73.5027 24.3317C73.5431 25.8416 74.163 27.9425 75.8433 29.6801C77.5134 31.4071 80.2716 32.8169 84.6678 32.8869C89.0633 32.9558 92.0068 31.6133 93.8523 29.835C95.7069 28.048 96.4865 25.7898 96.4997 23.9718C96.5122 22.2595 96.1044 21.27 95.6928 20.6037C95.5234 20.3296 95.354 20.1097 95.1889 19.8955C95.1451 19.8385 95.1015 19.7819 95.0583 19.7248C94.8698 19.4757 94.6542 19.1757 94.5781 18.8214L94.5779 18.8207C94.5383 18.6346 94.5542 18.418 94.573 18.2418C94.5883 18.0988 94.6119 17.9334 94.6363 17.7633C94.6441 17.7085 94.652 17.6532 94.6598 17.598C94.7254 17.1287 94.7874 16.5997 94.7566 16.0657C94.726 15.5342 94.6044 15.0228 94.3216 14.5791C94.0429 14.1419 93.5842 13.7333 92.8131 13.44L92.813 13.44C91.8761 13.0836 91.1175 13.0521 90.5074 13.1801C89.8946 13.3088 89.3971 13.6059 88.9973 13.9584C88.5954 14.3127 88.2984 14.7177 88.0928 15.0466C87.9905 15.2101 87.9122 15.3527 87.8543 15.4604C87.8464 15.475 87.8385 15.4899 87.8307 15.5045C87.8115 15.5403 87.7931 15.5748 87.7785 15.601C87.7681 15.6197 87.7542 15.6441 87.7392 15.6675C87.7318 15.6791 87.7199 15.697 87.7046 15.7167C87.6942 15.73 87.6595 15.7745 87.6036 15.8164C87.5347 15.8681 87.4662 15.8935 87.4355 15.9042C87.3966 15.9177 87.3586 15.9274 87.3263 15.9347C87.2615 15.9492 87.1878 15.9607 87.1132 15.9703C86.9623 15.9895 86.7702 16.0053 86.5593 16.018C86.1354 16.0434 85.6063 16.0578 85.1144 16.0578H85.1077C84.6288 16.0578 84.1169 16.0578 83.7099 16.0433C83.5066 16.0361 83.3171 16.0249 83.1657 16.0063C83.0911 15.9972 83.0122 15.9847 82.9399 15.9658C82.9037 15.9564 82.859 15.9428 82.8127 15.9224C82.7717 15.9045 82.6976 15.8677 82.6281 15.7982C82.598 15.7681 82.5728 15.7346 82.5667 15.7265L82.5658 15.7253C82.5545 15.7105 82.5416 15.6929 82.5292 15.6758C82.5241 15.6688 82.5188 15.6616 82.5133 15.654C82.4902 15.6222 82.4629 15.5848 82.4299 15.5404C82.3488 15.4314 82.2356 15.2841 82.0925 15.1154C81.8049 14.7765 81.4015 14.3576 80.903 13.9935C79.9121 13.2698 78.5923 12.787 77.0211 13.5096L75.4334 18.9614ZM75.4334 18.9614C75.4483 18.8032 75.4129 18.6062 75.3861 18.4628M75.4334 18.9614L75.3861 18.4628M75.3861 18.4628C75.3724 18.3892 75.3563 18.3081 75.3396 18.2243M75.3861 18.4628L75.3396 18.2243M75.3396 18.2243C75.3371 18.2119 75.3347 18.1995 75.3322 18.187M75.3396 18.2243L75.3322 18.187M75.3322 18.187C75.3126 18.0886 75.2921 17.9844 75.2718 17.874M75.3322 18.187L75.2718 17.874M75.2718 17.874C75.1902 17.4309 75.1153 16.9038 75.1344 16.3591M75.2718 17.874L75.1344 16.3591M75.1344 16.3591C75.1534 15.8157 75.2655 15.2736 75.5429 14.7886M75.1344 16.3591L75.5429 14.7886M75.5429 14.7886C75.8167 14.3099 76.2689 13.8563 77.021 13.5096L75.5429 14.7886ZM95.5784 19.5816C95.3277 19.2564 95.127 18.9961 95.067 18.7164L84.66 33.3868C93.6734 33.5282 96.9714 27.8713 96.9997 23.9755C97.0181 21.449 96.1625 20.3392 95.5784 19.5816Z" stroke="#B7D019"/>
</g>
</g>
<defs>
<filter id="filter0_dd_229_8941" x="0" y="0" width="120" height="54" filterUnits="userSpaceOnUse" color-interpolation-filters="sRGB">
<feFlood flood-opacity="0" result="BackgroundImageFix"/>
<feColorMatrix in="SourceAlpha" type="matrix" values="0 0 0 0 0 0 0 0 0 0 0 0 0 0 0 0 0 0 127 0" result="hardAlpha"/>
<feOffset dy="1"/>
<feGaussianBlur stdDeviation="1.5"/>
<feColorMatrix type="matrix" values="0 0 0 0 0 0 0 0 0 0 0 0 0 0 0 0 0 0 0.3 0"/>
<feBlend mode="normal" in2="BackgroundImageFix" result="effect1_dropShadow_229_8941"/>
<feColorMatrix in="SourceAlpha" type="matrix" values="0 0 0 0 0 0 0 0 0 0 0 0 0 0 0 0 0 0 127 0" result="hardAlpha"/>
<feMorphology radius="3" operator="dilate" in="SourceAlpha" result="effect2_dropShadow_229_8941"/>
<feOffset dy="4"/>
<feGaussianBlur stdDeviation="4"/>
<feColorMatrix type="matrix" values="0 0 0 0 0 0 0 0 0 0 0 0 0 0 0 0 0 0 0.15 0"/>
<feBlend mode="normal" in2="effect1_dropShadow_229_8941" result="effect2_dropShadow_229_8941"/>
<feBlend mode="normal" in="SourceGraphic" in2="effect2_dropShadow_229_8941" result="shape"/>
</filter>
<clipPath id="clip0_229_8941">
<rect x="11" y="7" width="98" height="32" rx="16" fill="white"/>
</clipPath>
</defs>
</svg>
