<svg width="115" height="54" viewBox="0 0 115 54" fill="none" xmlns="http://www.w3.org/2000/svg">
<g filter="url(#filter0_dd_229_8939)">
<g clip-path="url(#clip0_229_8939)">
<rect x="11" y="7" width="93" height="32" rx="16" fill="#E4ECF7"/>
<path d="M21.5764 18.228V24.22C21.5764 24.9107 21.7118 25.4287 21.9824 25.774C22.2531 26.11 22.7058 26.278 23.3404 26.278C23.9751 26.278 24.4278 26.11 24.6984 25.774C24.9691 25.4287 25.1044 24.9107 25.1044 24.22V18.228H27.1764V23.996C27.1764 24.7147 27.1064 25.34 26.9664 25.872C26.8358 26.3947 26.6164 26.8287 26.3084 27.174C26.0004 27.51 25.6038 27.762 25.1184 27.93C24.6331 28.0887 24.0404 28.168 23.3404 28.168C22.6404 28.168 22.0478 28.0887 21.5624 27.93C21.0771 27.762 20.6804 27.51 20.3724 27.174C20.0644 26.8287 19.8404 26.3947 19.7004 25.872C19.5698 25.34 19.5044 24.7147 19.5044 23.996V18.228H21.5764ZM28.9031 28V26.306H30.1631V19.922H28.9031V18.228H33.5511V19.922H32.2911V26.306H33.5511V28H28.9031ZM34.2881 30.114L38.4601 17.64H40.1681L35.9961 30.114H34.2881ZM43.7795 18.228V24.22C43.7795 24.9107 43.9149 25.4287 44.1855 25.774C44.4562 26.11 44.9089 26.278 45.5435 26.278C46.1782 26.278 46.6309 26.11 46.9015 25.774C47.1722 25.4287 47.3075 24.9107 47.3075 24.22V18.228H49.3795V23.996C49.3795 24.7147 49.3095 25.34 49.1695 25.872C49.0389 26.3947 48.8195 26.8287 48.5115 27.174C48.2035 27.51 47.8069 27.762 47.3215 27.93C46.8362 28.0887 46.2435 28.168 45.5435 28.168C44.8435 28.168 44.2509 28.0887 43.7655 27.93C43.2802 27.762 42.8835 27.51 42.5755 27.174C42.2675 26.8287 42.0435 26.3947 41.9035 25.872C41.7729 25.34 41.7075 24.7147 41.7075 23.996V18.228H43.7795ZM59.6043 28H57.1403L55.0263 24.402H54.9843L52.9263 28H50.6303L53.7663 22.946L50.7843 18.228H53.2623L55.1663 21.532H55.2083L57.1403 18.228H59.4363L56.4263 22.988L59.6043 28Z" fill="#A0AEC0"/>
<path d="M70.4334 18.9614L70.4333 18.9619C70.3985 19.3266 70.1904 19.6733 70.0052 19.961C69.9403 20.062 69.8737 20.1619 69.8058 20.2637C69.6555 20.4892 69.4986 20.7246 69.3374 21.0045C68.888 21.7846 68.4623 22.8246 68.5027 24.3317C68.5431 25.8416 69.163 27.9425 70.8433 29.6801C72.5134 31.4071 75.2716 32.8169 79.6678 32.8869C84.0633 32.9558 87.0068 31.6133 88.8523 29.835C90.7069 28.048 91.4865 25.7898 91.4997 23.9718C91.5122 22.2595 91.1044 21.27 90.6928 20.6037C90.5234 20.3296 90.354 20.1097 90.1889 19.8955C90.1451 19.8385 90.1015 19.7819 90.0583 19.7248C89.8698 19.4757 89.6542 19.1757 89.5781 18.8214L89.5779 18.8207C89.5383 18.6346 89.5542 18.418 89.573 18.2418C89.5883 18.0988 89.6119 17.9334 89.6363 17.7633C89.6441 17.7085 89.652 17.6532 89.6598 17.598C89.7254 17.1287 89.7874 16.5997 89.7566 16.0657C89.726 15.5342 89.6044 15.0228 89.3216 14.5791C89.0429 14.1419 88.5842 13.7333 87.8131 13.44L87.813 13.44C86.8761 13.0836 86.1175 13.0521 85.5074 13.1801C84.8946 13.3088 84.3971 13.6059 83.9973 13.9584C83.5954 14.3127 83.2984 14.7177 83.0928 15.0466C82.9905 15.2101 82.9122 15.3527 82.8543 15.4604C82.8464 15.475 82.8385 15.4899 82.8307 15.5045C82.8115 15.5403 82.7931 15.5748 82.7785 15.601C82.7681 15.6197 82.7542 15.6441 82.7392 15.6675C82.7318 15.6791 82.7199 15.697 82.7046 15.7167C82.6942 15.73 82.6595 15.7745 82.6036 15.8164C82.5347 15.8681 82.4662 15.8935 82.4355 15.9042C82.3966 15.9177 82.3586 15.9274 82.3263 15.9347C82.2615 15.9492 82.1878 15.9607 82.1132 15.9703C81.9623 15.9895 81.7702 16.0053 81.5593 16.018C81.1354 16.0434 80.6063 16.0578 80.1144 16.0578H80.1077C79.6288 16.0578 79.1169 16.0578 78.7099 16.0433C78.5066 16.0361 78.3171 16.0249 78.1657 16.0063C78.0911 15.9972 78.0122 15.9847 77.9399 15.9658C77.9037 15.9564 77.859 15.9428 77.8127 15.9224C77.7717 15.9045 77.6976 15.8677 77.6281 15.7982C77.598 15.7681 77.5728 15.7346 77.5667 15.7265L77.5658 15.7253C77.5545 15.7105 77.5416 15.6929 77.5292 15.6758C77.5241 15.6688 77.5188 15.6616 77.5133 15.654C77.4902 15.6222 77.4629 15.5848 77.4299 15.5404C77.3488 15.4314 77.2356 15.2841 77.0925 15.1154C76.8049 14.7765 76.4015 14.3576 75.903 13.9935C74.9121 13.2698 73.5923 12.787 72.0211 13.5096L70.4334 18.9614ZM70.4334 18.9614C70.4483 18.8032 70.4129 18.6062 70.3861 18.4628M70.4334 18.9614L70.3861 18.4628M70.3861 18.4628C70.3724 18.3892 70.3563 18.3081 70.3396 18.2243M70.3861 18.4628L70.3396 18.2243M70.3396 18.2243C70.3371 18.2119 70.3347 18.1995 70.3322 18.187M70.3396 18.2243L70.3322 18.187M70.3322 18.187C70.3126 18.0886 70.2921 17.9844 70.2718 17.874M70.3322 18.187L70.2718 17.874M70.2718 17.874C70.1902 17.4309 70.1153 16.9038 70.1344 16.3591M70.2718 17.874L70.1344 16.3591M70.1344 16.3591C70.1534 15.8157 70.2655 15.2736 70.5429 14.7886M70.1344 16.3591L70.5429 14.7886M70.5429 14.7886C70.8167 14.3099 71.2689 13.8563 72.021 13.5096L70.5429 14.7886ZM90.5784 19.5816C90.3277 19.2564 90.127 18.9961 90.067 18.7164L79.66 33.3868C88.6734 33.5282 91.9714 27.8713 91.9997 23.9755C92.0181 21.449 91.1625 20.3392 90.5784 19.5816Z" stroke="#B7D019"/>
</g>
</g>
<defs>
<filter id="filter0_dd_229_8939" x="0" y="0" width="115" height="54" filterUnits="userSpaceOnUse" color-interpolation-filters="sRGB">
<feFlood flood-opacity="0" result="BackgroundImageFix"/>
<feColorMatrix in="SourceAlpha" type="matrix" values="0 0 0 0 0 0 0 0 0 0 0 0 0 0 0 0 0 0 127 0" result="hardAlpha"/>
<feOffset dy="1"/>
<feGaussianBlur stdDeviation="1.5"/>
<feColorMatrix type="matrix" values="0 0 0 0 0 0 0 0 0 0 0 0 0 0 0 0 0 0 0.3 0"/>
<feBlend mode="normal" in2="BackgroundImageFix" result="effect1_dropShadow_229_8939"/>
<feColorMatrix in="SourceAlpha" type="matrix" values="0 0 0 0 0 0 0 0 0 0 0 0 0 0 0 0 0 0 127 0" result="hardAlpha"/>
<feMorphology radius="3" operator="dilate" in="SourceAlpha" result="effect2_dropShadow_229_8939"/>
<feOffset dy="4"/>
<feGaussianBlur stdDeviation="4"/>
<feColorMatrix type="matrix" values="0 0 0 0 0 0 0 0 0 0 0 0 0 0 0 0 0 0 0.15 0"/>
<feBlend mode="normal" in2="effect1_dropShadow_229_8939" result="effect2_dropShadow_229_8939"/>
<feBlend mode="normal" in="SourceGraphic" in2="effect2_dropShadow_229_8939" result="shape"/>
</filter>
<clipPath id="clip0_229_8939">
<rect x="11" y="7" width="93" height="32" rx="16" fill="white"/>
</clipPath>
</defs>
</svg>
