<svg width="155" height="76" viewBox="0 0 155 76" fill="none" xmlns="http://www.w3.org/2000/svg">
<circle cx="92.8998" cy="16.1" r="16.1" fill="#33C69A"/>
<circle cx="92.8999" cy="14.7002" r="10.5" fill="#EBF2FA"/>
<path d="M97.7999 15.4C97.7999 20.0392 94.3525 23.8 90.0999 23.8C85.8473 23.8 82.3999 20.0392 82.3999 15.4C82.3999 10.7608 85.8473 7 90.0999 7C94.3525 7 97.7999 10.7608 97.7999 15.4Z" fill="black"/>
<circle cx="62.1" cy="16.1" r="16.1" fill="#33C69A"/>
<circle cx="62.1001" cy="14.7002" r="10.5" fill="#EBF2FA"/>
<path d="M67.0001 15.4C67.0001 20.0392 63.5527 23.8 59.3001 23.8C55.0475 23.8 51.6001 20.0392 51.6001 15.4C51.6001 10.7608 55.0475 7 59.3001 7C63.5527 7 67.0001 10.7608 67.0001 15.4Z" fill="black"/>
<g filter="url(#filter0_d_104_1474)">
<path d="M4 43C4 56.8071 15.1929 68 29 68H126C139.807 68 151 56.8071 151 43C151 29.1929 139.807 18 126 18H29C15.1929 18 4 29.1929 4 43Z" fill="#33C69A"/>
<path d="M4 43C4 56.8071 14.5303 68 27.52 68H127.48C140.47 68 151 56.8071 151 43C151 29.1929 140.47 18 127.48 18H27.52C14.5303 18 4 29.1929 4 43Z" fill="#33C69A"/>
<path d="M67.932 39.04V41.24H51.412V39.04H62.432C62.7386 37.8133 62.912 36.52 62.952 35.16H53.672V32.98H65.592V34.22C65.592 35.82 65.412 37.4267 65.052 39.04H67.932ZM56.512 48.86H66.032V50.96H55.552C54.4186 50.96 53.852 50.3933 53.852 49.26V45.74H62.892V44.52H53.772V42.48H65.572V47.64H56.512V48.86ZM71.204 42.74L69.484 40.94C70.6173 39.94 71.464 38.9133 72.024 37.86C72.5973 36.7933 72.884 35.6667 72.884 34.48V33.38H75.464V34.52C75.464 35.7867 75.224 36.9867 74.744 38.12L74.824 38.18L75.264 37.84C75.4107 37.7067 75.5973 37.64 75.824 37.64C76.1173 37.64 76.3573 37.7533 76.544 37.98L77.764 39.36C78.3507 38.72 78.7907 38.0133 79.084 37.24C79.3773 36.4667 79.524 35.56 79.524 34.52V33.38H82.104V34.6C82.104 35.96 81.8707 37.18 81.404 38.26L81.484 38.32L81.904 37.98C82.064 37.8333 82.2707 37.76 82.524 37.76C82.804 37.76 83.0173 37.8533 83.164 38.04L85.524 40.82L83.784 42.64L81.244 39.44C81.164 39.3333 81.084 39.28 81.004 39.28C80.9107 39.28 80.824 39.3333 80.744 39.44C80.3973 39.96 79.9707 40.4867 79.464 41.02C78.9573 41.5533 78.3307 42.1467 77.584 42.8L74.624 39.3C74.544 39.1933 74.464 39.14 74.384 39.14C74.2907 39.14 74.204 39.1933 74.124 39.3L74.084 39.36C73.4707 40.32 72.5107 41.4467 71.204 42.74ZM85.764 46V48.28H69.244V46H85.764ZM99.696 32.42H102.396V50.18H99.696V32.42ZM87.536 44.56C89.2427 43.7067 90.5427 42.92 91.436 42.2C92.3293 41.48 92.956 40.7133 93.316 39.9C93.6893 39.0733 93.876 38.0533 93.876 36.84V36.08H88.156V33.82H96.596V36.84C96.596 38.3733 96.356 39.68 95.876 40.76C95.4093 41.84 94.6427 42.8333 93.576 43.74C92.5093 44.6333 91.016 45.5933 89.096 46.62L87.536 44.56Z" fill="white"/>
</g>
<defs>
<filter id="filter0_d_104_1474" x="0" y="18" width="155" height="58" filterUnits="userSpaceOnUse" color-interpolation-filters="sRGB">
<feFlood flood-opacity="0" result="BackgroundImageFix"/>
<feColorMatrix in="SourceAlpha" type="matrix" values="0 0 0 0 0 0 0 0 0 0 0 0 0 0 0 0 0 0 127 0" result="hardAlpha"/>
<feOffset dy="4"/>
<feGaussianBlur stdDeviation="2"/>
<feComposite in2="hardAlpha" operator="out"/>
<feColorMatrix type="matrix" values="0 0 0 0 0 0 0 0 0 0 0 0 0 0 0 0 0 0 0.25 0"/>
<feBlend mode="normal" in2="BackgroundImageFix" result="effect1_dropShadow_104_1474"/>
<feBlend mode="normal" in="SourceGraphic" in2="effect1_dropShadow_104_1474" result="shape"/>
</filter>
</defs>
</svg>
